<svg width="130" height="37" viewBox="0 0 130 37" fill="none" xmlns="http://www.w3.org/2000/svg">
<path d="M29.7407 30.0135C37.5349 22.143 34.733 13.5592 34.733 13.5592C32.6953 4.13486 24.5446 0.823611 21.7428 0.314189C6.71478 -1.97821 1.87526 8.97438 1.11113 10.5026C-2.45483 22.4741 3.65824 27.5683 4.16767 28.5872C4.16767 29.0966 1.62055 31.389 1.62055 31.389C9.77132 28.3324 10.026 21.71 9.51661 20.9458C4.16767 17.8893 2.6394 14.0686 2.12998 13.0498C1.62055 11.0121 2.12998 10.7574 2.12998 10.7574C6.46007 16.1063 14.3561 16.6157 15.1203 16.8704C17.9221 20.4364 12.5731 24.2571 12.5731 24.5118C12.5731 24.7665 13.0826 27.3136 13.3373 27.823C18.4315 24.2571 17.6674 18.144 17.6674 17.1251C24.5446 14.8327 28.3653 11.0121 30.1482 8.97438C31.9312 6.68197 31.4218 8.46495 31.4218 8.46495C29.6388 12.2856 27.6011 14.8327 25.3087 17.1251C23.0163 19.4175 21.7428 21.2005 21.2333 22.4741C19.9598 27.823 22.2522 34.1908 22.2522 34.1908C23.704 33.605 25.1304 32.8663 26.3276 32.1786L29.8681 36.1776C30.5558 36.9672 31.7529 37.0436 32.5425 36.3304L32.6953 36.203C33.485 35.5153 33.5614 34.3182 32.8482 33.5286L29.7407 30.0135ZM16.674 15.8261C14.1524 15.8261 12.0892 13.763 12.0892 11.2413C12.0892 8.71967 14.1524 6.6565 16.674 6.6565C19.1956 6.6565 21.2588 8.71967 21.2588 11.2413C21.2588 13.763 19.1956 15.8261 16.674 15.8261Z" fill="white"/>
<path d="M16.6739 15.8264C19.206 15.8264 21.2587 13.7737 21.2587 11.2416C21.2587 8.70946 19.206 6.65677 16.6739 6.65677C14.1418 6.65677 12.0891 8.70946 12.0891 11.2416C12.0891 13.7737 14.1418 15.8264 16.6739 15.8264Z" fill="#185EBA"/>
<path d="M129.695 15.9231L126.291 16.1326C126.233 15.8417 126.108 15.5799 125.916 15.3472C125.724 15.1087 125.471 14.9196 125.157 14.78C124.848 14.6345 124.479 14.5618 124.048 14.5618C123.472 14.5618 122.987 14.684 122.591 14.9283C122.195 15.1668 121.998 15.4868 121.998 15.8882C121.998 16.2082 122.126 16.4787 122.382 16.6998C122.638 16.9209 123.077 17.0983 123.699 17.2321L126.125 17.7208C127.429 17.9885 128.4 18.419 129.04 19.0124C129.68 19.6058 130 20.3854 130 21.3511C130 22.2296 129.741 23.0005 129.223 23.6637C128.711 24.3269 128.007 24.8447 127.111 25.2171C126.221 25.5836 125.194 25.7668 124.031 25.7668C122.256 25.7668 120.843 25.3974 119.79 24.6585C118.743 23.9139 118.129 22.9016 117.948 21.6217L121.605 21.4297C121.715 21.9707 121.983 22.3838 122.408 22.6689C122.832 22.9481 123.376 23.0877 124.04 23.0877C124.691 23.0877 125.215 22.9627 125.61 22.7125C126.012 22.4565 126.215 22.1278 126.221 21.7264C126.215 21.389 126.073 21.1126 125.794 20.8973C125.514 20.6763 125.084 20.5076 124.502 20.3912L122.181 19.9287C120.872 19.6669 119.897 19.2131 119.257 18.5673C118.623 17.9216 118.306 17.0983 118.306 16.0977C118.306 15.2366 118.539 14.4949 119.004 13.8724C119.476 13.2499 120.136 12.7699 120.985 12.4325C121.841 12.095 122.841 11.9263 123.987 11.9263C125.68 11.9263 127.013 12.2841 127.984 12.9997C128.961 13.7153 129.532 14.6898 129.695 15.9231Z" fill="white"/>
<path d="M109.03 30.8108C107.826 30.8108 106.793 30.645 105.932 30.3134C105.077 29.9876 104.396 29.5426 103.89 28.9782C103.384 28.4139 103.055 27.7798 102.904 27.0758L106.342 26.6133C106.447 26.8809 106.613 27.1311 106.839 27.3638C107.066 27.5965 107.366 27.7827 107.738 27.9223C108.116 28.0678 108.576 28.1405 109.117 28.1405C109.926 28.1405 110.592 27.9427 111.115 27.5471C111.645 27.1573 111.91 26.5028 111.91 25.5836V23.1314H111.753C111.59 23.5037 111.345 23.8557 111.019 24.1873C110.694 24.5189 110.275 24.7894 109.763 24.9989C109.251 25.2083 108.64 25.313 107.93 25.313C106.924 25.313 106.007 25.0803 105.181 24.6149C104.361 24.1437 103.707 23.4252 103.218 22.4594C102.735 21.4879 102.494 20.2603 102.494 18.7768C102.494 17.2583 102.741 15.9901 103.235 14.9719C103.73 13.9538 104.387 13.1917 105.208 12.6856C106.034 12.1794 106.938 11.9263 107.922 11.9263C108.672 11.9263 109.3 12.0543 109.806 12.3103C110.313 12.5605 110.72 12.8746 111.028 13.2528C111.342 13.6251 111.584 13.9916 111.753 14.3523H111.892V12.1009H115.584V25.6359C115.584 26.7762 115.304 27.7303 114.746 28.4983C114.187 29.2662 113.414 29.8422 112.424 30.2262C111.441 30.616 110.31 30.8108 109.03 30.8108ZM109.108 22.5205C109.708 22.5205 110.214 22.3722 110.627 22.0754C111.046 21.7729 111.366 21.3424 111.587 20.7839C111.814 20.2196 111.927 19.5447 111.927 18.7593C111.927 17.9739 111.817 17.2932 111.595 16.7173C111.374 16.1355 111.054 15.6846 110.636 15.3646C110.217 15.0447 109.708 14.8847 109.108 14.8847C108.497 14.8847 107.983 15.0505 107.564 15.3821C107.145 15.7079 106.828 16.1617 106.613 16.7435C106.397 17.3252 106.29 17.9972 106.29 18.7593C106.29 19.5331 106.397 20.2021 106.613 20.7664C106.834 21.325 107.151 21.7584 107.564 22.0667C107.983 22.3692 108.497 22.5205 109.108 22.5205Z" fill="white"/>
<path d="M91.4215 17.7557V25.505H87.704V12.1009H91.247V14.4658H91.4041C91.7008 13.6862 92.1982 13.0695 92.8963 12.6157C93.5945 12.1561 94.441 11.9263 95.4358 11.9263C96.3667 11.9263 97.1782 12.13 97.8706 12.5372C98.5629 12.9444 99.101 13.5262 99.485 14.2825C99.869 15.033 100.061 15.929 100.061 16.9703V25.505H96.3434V17.6336C96.3492 16.8133 96.1398 16.1733 95.7151 15.7137C95.2904 15.2483 94.7057 15.0156 93.961 15.0156C93.4607 15.0156 93.0185 15.1232 92.6345 15.3385C92.2564 15.5537 91.9597 15.8679 91.7444 16.2809C91.535 16.6882 91.4274 17.1798 91.4215 17.7557Z" fill="white"/>
<path d="M81.0085 25.505V12.1009H84.726V25.505H81.0085ZM82.876 10.373C82.3233 10.373 81.8491 10.1897 81.4535 9.8232C81.0637 9.45086 80.8688 9.0058 80.8688 8.48802C80.8688 7.97606 81.0637 7.53681 81.4535 7.17029C81.8491 6.79796 82.3233 6.61179 82.876 6.61179C83.4287 6.61179 83.8999 6.79796 84.2897 7.17029C84.6853 7.53681 84.8831 7.97606 84.8831 8.48802C84.8831 9.0058 84.6853 9.45086 84.2897 9.8232C83.8999 10.1897 83.4287 10.373 82.876 10.373Z" fill="white"/>
<path d="M70.9531 25.5051V12.1009H74.5572V14.4396H74.6969C74.9412 13.6077 75.3514 12.9794 75.9273 12.5547C76.5033 12.1242 77.1665 11.9089 77.917 11.9089C78.1032 11.9089 78.3039 11.9205 78.5191 11.9438C78.7344 11.9671 78.9235 11.9991 79.0864 12.0398V15.3385C78.9119 15.2861 78.6704 15.2396 78.3621 15.1989C78.0537 15.1581 77.7716 15.1378 77.5156 15.1378C76.9687 15.1378 76.48 15.257 76.0495 15.4956C75.6248 15.7283 75.2874 16.0541 75.0372 16.473C74.7929 16.8918 74.6707 17.3747 74.6707 17.9216V25.5051H70.9531Z" fill="white"/>
<path d="M64.2576 25.505V12.1009H67.9752V25.505H64.2576ZM66.1251 10.373C65.5724 10.373 65.0983 10.1897 64.7027 9.8232C64.3129 9.45086 64.118 9.0058 64.118 8.48802C64.118 7.97606 64.3129 7.53681 64.7027 7.17029C65.0983 6.79796 65.5724 6.61179 66.1251 6.61179C66.6778 6.61179 67.149 6.79796 67.5388 7.17029C67.9344 7.53681 68.1322 7.97606 68.1322 8.48802C68.1322 9.0058 67.9344 9.45086 67.5388 9.8232C67.149 10.1897 66.6778 10.373 66.1251 10.373Z" fill="white"/>
<path d="M45.9927 25.5051V7.63284H49.7714V15.0069H57.4421V7.63284H61.2121V25.5051H57.4421V18.1223H49.7714V25.5051H45.9927Z" fill="white"/>
</svg>
