<svg width="139" height="20" viewBox="0 0 139 20" fill="none" xmlns="http://www.w3.org/2000/svg">
<path d="M49.4596 1.52686V19.0299H45.2804V1.52686H49.4596Z" fill="#05264E"/>
<path d="M42.6204 1.52686V19.0299H38.4412V1.52686H42.6204Z" fill="#05264E"/>
<path d="M31.602 19.0301V5.90281H35.7811V19.0301H31.602ZM33.6958 4.373C33.109 4.373 32.6047 4.17928 32.1831 3.79185C31.7615 3.39871 31.5507 2.92581 31.5507 2.37315C31.5507 1.82618 31.7615 1.35897 32.1831 0.971538C32.6047 0.578403 33.109 0.381836 33.6958 0.381836C34.2884 0.381836 34.7926 0.578403 35.2085 0.971538C35.6302 1.35897 35.841 1.82618 35.841 2.37315C35.841 2.92581 35.6302 3.39871 35.2085 3.79185C34.7926 4.17928 34.2884 4.373 33.6958 4.373Z" fill="#05264E"/>
<path d="M21.0813 15.5857L21.0984 10.6031H21.6796L25.3716 5.90261H30.1063L24.6196 12.6372H23.5171L21.0813 15.5857ZM17.3124 19.0299V1.52686H21.4916V19.0299H17.3124ZM25.4656 19.0299L22.03 13.5773L24.7819 10.6117L30.2944 19.0299H25.4656Z" fill="#05264E"/>
<path d="M10.8855 6.77438C10.8285 6.14765 10.575 5.6605 10.1249 5.31295C9.68046 4.9597 9.04518 4.78307 8.21903 4.78307C7.67206 4.78307 7.21625 4.85429 6.85161 4.99673C6.48696 5.13917 6.21348 5.33574 6.03115 5.58643C5.84883 5.83143 5.75482 6.11346 5.74912 6.43253C5.73773 6.69461 5.789 6.92537 5.90296 7.12478C6.02261 7.3242 6.19353 7.50082 6.41574 7.65466C6.64364 7.8028 6.91713 7.93384 7.23619 8.04779C7.55526 8.16175 7.91421 8.26145 8.31304 8.34692L9.8172 8.68877C10.6832 8.87679 11.4467 9.12749 12.1076 9.44086C12.7743 9.75422 13.3326 10.1274 13.7827 10.5604C14.2385 10.9935 14.5832 11.492 14.8168 12.0561C15.0504 12.6201 15.1701 13.2525 15.1758 13.9534C15.1701 15.0587 14.8909 16.0073 14.3382 16.7993C13.7856 17.5913 12.9908 18.1981 11.9538 18.6197C10.9225 19.0413 9.67761 19.2521 8.21903 19.2521C6.75475 19.2521 5.47849 19.0328 4.39025 18.594C3.30201 18.1553 2.45591 17.4887 1.85197 16.5942C1.24802 15.6997 0.937503 14.5687 0.92041 13.2013H4.9714C5.00559 13.7653 5.15657 14.2354 5.42436 14.6114C5.69215 14.9875 6.05964 15.2723 6.52684 15.4661C6.99974 15.6598 7.54671 15.7566 8.16775 15.7566C8.73751 15.7566 9.22181 15.6797 9.62064 15.5259C10.0252 15.3721 10.3357 15.1584 10.5522 14.8849C10.7687 14.6114 10.8798 14.2981 10.8855 13.9448C10.8798 13.6143 10.7772 13.3323 10.5778 13.0987C10.3784 12.8594 10.0707 12.6543 9.65482 12.4834C9.2446 12.3067 8.72042 12.1444 8.08229 11.9962L6.25336 11.5689C4.7378 11.2214 3.54415 10.6601 2.67242 9.88527C1.80069 9.1047 1.36767 8.05064 1.37337 6.7231C1.36767 5.64056 1.65825 4.69191 2.2451 3.87715C2.83195 3.0624 3.64386 2.42712 4.68082 1.97131C5.71778 1.5155 6.90004 1.2876 8.22758 1.2876C9.5836 1.2876 10.7602 1.51835 11.7572 1.97986C12.76 2.43566 13.5377 3.07664 14.0904 3.90279C14.6431 4.72895 14.9251 5.68614 14.9365 6.77438H10.8855Z" fill="#05264E"/>
<path d="M132.77 19.2775C131.397 19.2775 130.211 19.0068 129.214 18.4656C128.223 17.9186 127.459 17.1409 126.924 16.1324C126.394 15.1182 126.129 13.9132 126.129 12.5173C126.129 11.1613 126.397 9.97615 126.932 8.96198C127.468 7.94211 128.223 7.15015 129.197 6.58608C130.172 6.01633 131.32 5.73145 132.641 5.73145C133.576 5.73145 134.43 5.87673 135.205 6.16731C135.98 6.45789 136.65 6.88806 137.214 7.45782C137.778 8.02758 138.217 8.73123 138.53 9.56877C138.843 10.4006 139 11.355 139 12.4318V13.4745H127.591V11.0473H135.111C135.106 10.6029 135 10.2069 134.795 9.85935C134.59 9.5118 134.308 9.24116 133.949 9.04744C133.596 8.84803 133.188 8.74832 132.727 8.74832C132.26 8.74832 131.841 8.85373 131.471 9.06454C131.1 9.26965 130.807 9.55168 130.59 9.91063C130.374 10.2639 130.26 10.6656 130.248 11.1157V13.5856C130.248 14.1212 130.354 14.5912 130.565 14.9957C130.775 15.3946 131.075 15.7051 131.462 15.9273C131.849 16.1495 132.311 16.2606 132.847 16.2606C133.217 16.2606 133.553 16.2093 133.855 16.1068C134.157 16.0042 134.416 15.8532 134.633 15.6538C134.849 15.4544 135.012 15.2094 135.12 14.9188L138.957 15.0299C138.798 15.8903 138.447 16.6395 137.906 17.2776C137.37 17.9101 136.667 18.4029 135.795 18.7561C134.923 19.1037 133.915 19.2775 132.77 19.2775Z" fill="#05264E"/>
<path d="M117.185 19.0299V5.90262H121.245V8.29561H121.382C121.621 7.42957 122.011 6.78575 122.552 6.36412C123.094 5.9368 123.723 5.72314 124.441 5.72314C124.635 5.72314 124.834 5.73739 125.039 5.76588C125.245 5.78867 125.435 5.8257 125.612 5.87698V9.5092C125.413 9.44082 125.151 9.3867 124.826 9.34681C124.507 9.30693 124.222 9.28699 123.971 9.28699C123.475 9.28699 123.028 9.39809 122.629 9.6203C122.236 9.83681 121.926 10.1416 121.698 10.5348C121.476 10.9222 121.364 11.378 121.364 11.9022V19.0299H117.185Z" fill="#05264E"/>
<path d="M110.346 19.0301V5.90281H114.525V19.0301H110.346ZM112.44 4.373C111.853 4.373 111.349 4.17928 110.927 3.79185C110.506 3.39871 110.295 2.92581 110.295 2.37315C110.295 1.82618 110.506 1.35897 110.927 0.971538C111.349 0.578403 111.853 0.381836 112.44 0.381836C113.032 0.381836 113.537 0.578403 113.953 0.971538C114.374 1.35897 114.585 1.82618 114.585 2.37315C114.585 2.92581 114.374 3.39871 113.953 3.79185C113.537 4.17928 113.032 4.373 112.44 4.373Z" fill="#05264E"/>
<path d="M92.3431 19.0299V1.52686H96.5735V8.55199H103.47V1.52686H107.692V19.0299H103.47V11.9962H96.5735V19.0299H92.3431Z" fill="#05264E"/>
<path d="M78.0753 11.5435V19.0301H73.8961V5.90286H77.8702V8.31294H78.0155C78.3061 7.50958 78.8018 6.88 79.5026 6.42419C80.2034 5.96269 81.0381 5.73193 82.0067 5.73193C82.9297 5.73193 83.7302 5.9399 84.4082 6.35582C85.0919 6.76605 85.6218 7.3415 85.9978 8.08219C86.3796 8.81718 86.5676 9.67752 86.5619 10.6632V19.0301H82.3827V11.4837C82.3884 10.7544 82.2032 10.1846 81.8272 9.77438C81.4569 9.36415 80.9412 9.15904 80.2803 9.15904C79.8416 9.15904 79.4541 9.2559 79.118 9.44961C78.7875 9.63763 78.5311 9.90827 78.3488 10.2615C78.1722 10.6148 78.081 11.0421 78.0753 11.5435Z" fill="#5E81FF"/>
<path d="M71.4262 10.2789C71.4262 12.2047 71.0559 13.837 70.3152 15.176C69.5745 16.5149 68.5717 17.5319 67.3069 18.227C66.0477 18.9221 64.6347 19.2697 63.0679 19.2697C61.4953 19.2697 60.0795 18.9193 58.8203 18.2185C57.5611 17.5177 56.5612 16.5007 55.8205 15.1674C55.0855 13.8285 54.718 12.199 54.718 10.2789C54.718 8.3531 55.0855 6.72074 55.8205 5.38181C56.5612 4.04287 57.5611 3.02585 58.8203 2.33075C60.0795 1.63564 61.4953 1.28809 63.0679 1.28809C64.6347 1.28809 66.0477 1.63564 67.3069 2.33075C68.5717 3.02585 69.5745 4.04287 70.3152 5.38181C71.0559 6.72074 71.4262 8.3531 71.4262 10.2789ZM67.1018 10.2789C67.1018 9.13937 66.9394 8.17648 66.6146 7.39021C66.2956 6.60394 65.834 6.00854 65.2301 5.60401C64.6319 5.19949 63.9111 4.99722 63.0679 4.99722C62.2303 4.99722 61.5096 5.19949 60.9056 5.60401C60.3017 6.00854 59.8373 6.60394 59.5126 7.39021C59.1935 8.17648 59.034 9.13937 59.034 10.2789C59.034 11.4184 59.1935 12.3813 59.5126 13.1676C59.8373 13.9538 60.3017 14.5492 60.9056 14.9538C61.5096 15.3583 62.2303 15.5606 63.0679 15.5606C63.9111 15.5606 64.6319 15.3583 65.2301 14.9538C65.834 14.5492 66.2956 13.9538 66.6146 13.1676C66.9394 12.3813 67.1018 11.4184 67.1018 10.2789Z" fill="#5E81FF"/>
</svg>
