<svg width="43" height="46" viewBox="0 0 43 46" fill="none" xmlns="http://www.w3.org/2000/svg">
<path d="M36.3071 37.5039C45.8221 27.8956 42.4017 17.4166 42.4017 17.4166C39.9141 5.91155 29.9637 1.86922 26.5433 1.24733C8.19732 -1.55121 2.2893 11.8196 1.35645 13.6853C-2.99683 28.2998 4.46594 34.5188 5.08783 35.7626C5.08783 36.3845 1.97835 39.183 1.97835 39.183C11.9287 35.4517 12.2396 27.367 11.6178 26.4342C5.08783 22.7028 3.22214 18.0385 2.60025 16.7947C1.97835 14.3072 2.60025 13.9962 2.60025 13.9962C7.88637 20.5261 17.5258 21.148 18.4586 21.459C21.8791 25.8123 15.3491 30.4765 15.3491 30.7874C15.3491 31.0984 15.971 34.2079 16.282 34.8298C22.5009 30.4765 21.5681 23.0137 21.5681 21.7699C29.9637 18.9714 34.6279 14.3072 36.8046 11.8196C38.9812 9.02104 38.3593 11.1977 38.3593 11.1977C36.1827 15.8619 33.6951 18.9714 30.8966 21.7699C28.098 24.5685 26.5433 26.7451 25.9214 28.2998C24.3666 34.8298 27.1652 42.6035 27.1652 42.6035C28.9376 41.8883 30.6789 40.9865 32.1404 40.147L36.4625 45.0289C37.3021 45.9928 38.7636 46.0861 39.7275 45.2154L39.9141 45.06C40.878 44.2204 40.9713 42.7589 40.1006 41.795L36.3071 37.5039ZM20.3554 20.1841C17.277 20.1841 14.7583 17.6654 14.7583 14.587C14.7583 11.5086 17.277 8.98994 20.3554 8.98994C23.4338 8.98994 25.9525 11.5086 25.9525 14.587C25.9525 17.6654 23.4338 20.1841 20.3554 20.1841Z" fill="#3C65F5"/>
<path d="M20.3554 20.1844C23.4466 20.1844 25.9525 17.6785 25.9525 14.5873C25.9525 11.4961 23.4466 8.99023 20.3554 8.99023C17.2642 8.99023 14.7583 11.4961 14.7583 14.5873C14.7583 17.6785 17.2642 20.1844 20.3554 20.1844Z" fill="white"/>
</svg>
